<svg width="38" height="38" viewBox="0 0 38 38" fill="none" xmlns="http://www.w3.org/2000/svg">
<rect width="38" height="38" rx="10" fill="#23B3E8"/>
<path d="M23.2778 21.2222C22.1425 21.2222 21.2222 22.1425 21.2222 23.2778C21.2222 24.413 22.1425 25.3333 23.2778 25.3333C24.413 25.3333 25.3333 24.413 25.3333 23.2778C25.3333 22.1425 24.413 21.2222 23.2778 21.2222ZM23.2778 21.2222V16.4259C23.2778 16.0625 23.1334 15.7139 22.8764 15.4569C22.6194 15.1999 22.2709 15.0556 21.9074 15.0556H19.8519M15.0556 17.1111C16.1908 17.1111 17.1111 16.1908 17.1111 15.0556C17.1111 13.9203 16.1908 13 15.0556 13C13.9203 13 13 13.9203 13 15.0556C13 16.1908 13.9203 17.1111 15.0556 17.1111ZM15.0556 17.1111V25.3333" stroke="#FCFCFC" stroke-width="2" stroke-linecap="round" stroke-linejoin="round"/>
</svg>
