<svg width="11" height="11" viewBox="0 0 11 11" fill="none" xmlns="http://www.w3.org/2000/svg">
<path d="M5.4998 0.458328C2.71531 0.458328 0.45813 2.71562 0.45813 5.49999C0.45813 8.28448 2.71531 10.5417 5.4998 10.5417C8.28429 10.5417 10.5415 8.28448 10.5415 5.49999C10.5415 2.71562 8.28429 0.458328 5.4998 0.458328ZM5.4998 9.62499C3.22165 9.62499 1.3748 7.77825 1.3748 5.49999C1.3748 3.22185 3.22165 1.37499 5.4998 1.37499C7.77794 1.37499 9.6248 3.22185 9.6248 5.49999C9.6248 7.77825 7.77794 9.62499 5.4998 9.62499ZM7.19884 6.55095C7.37782 6.72993 7.37782 7.02017 7.19884 7.19915C7.10946 7.28853 6.99201 7.33333 6.8748 7.33333C6.75758 7.33344 6.64024 7.28864 6.55075 7.19915L5.17575 5.82415C5.08982 5.73821 5.04146 5.62168 5.04146 5.49999V2.74999C5.04146 2.49688 5.24668 2.29166 5.4998 2.29166C5.75291 2.29166 5.95813 2.49688 5.95813 2.74999V5.31025L7.19884 6.55095Z" fill="#03293D"/>
</svg>
