<svg width="33" height="33" viewBox="0 0 33 33" fill="none" xmlns="http://www.w3.org/2000/svg">
<path d="M22.8663 13.0371V11.6521L13.5328 11.6517V13.0368L22.8663 13.0371ZM22.8665 18.5771L22.8663 15.1149L13.5327 15.1146L13.533 18.5767L22.8665 18.5771ZM22.8663 10.267C23.603 10.267 24.1997 10.8861 24.1997 11.6521L24.1999 18.5771C24.1999 19.3431 23.6032 19.9621 22.8665 19.9621L13.533 19.9618C12.7963 19.9618 12.1996 19.3427 12.1996 18.5767L12.2061 11.6517C12.2061 10.8858 12.7961 10.2667 13.5328 10.2667L22.8663 10.267ZM10.8666 21.3483H20.867V22.7333L10.8668 22.733C10.13 22.733 9.53336 22.1139 9.53336 21.3479L9.5332 13.7304H10.8666V21.3483Z" fill="white"/>
</svg>
