<svg width="16" height="16" viewBox="0 0 16 16" fill="none" xmlns="http://www.w3.org/2000/svg">
<rect width="16" height="16" rx="8" fill="#3D43A2"/>
<path d="M4.456 5.77H5.23V9.364H7.204V10H4.456V5.77ZM11.0836 7.714V9.742C10.8916 9.838 10.6576 9.914 10.3816 9.97C10.1096 10.026 9.83161 10.054 9.54761 10.054C9.11161 10.054 8.73361 9.968 8.41361 9.796C8.09361 9.62 7.84761 9.37 7.67561 9.046C7.50761 8.718 7.42361 8.33 7.42361 7.882C7.42361 7.438 7.50761 7.054 7.67561 6.73C7.84761 6.402 8.08961 6.152 8.40161 5.98C8.71761 5.804 9.08761 5.716 9.51161 5.716C9.80761 5.716 10.0856 5.76 10.3456 5.848C10.6056 5.932 10.8216 6.054 10.9936 6.214L10.7356 6.772C10.5396 6.62 10.3456 6.512 10.1536 6.448C9.96561 6.38 9.75761 6.346 9.52961 6.346C9.09361 6.346 8.76361 6.476 8.53961 6.736C8.31961 6.992 8.20961 7.374 8.20961 7.882C8.20961 8.922 8.66561 9.442 9.57761 9.442C9.84961 9.442 10.1216 9.404 10.3936 9.328V8.266H9.48161V7.714H11.0836Z" fill="white"/>
</svg>
