<svg width="16" height="16" viewBox="0 0 16 16" fill="none" xmlns="http://www.w3.org/2000/svg">
<rect width="16" height="16" rx="8" fill="#23B3E8"/>
<path d="M4.456 5.77H6.304C6.756 5.77 7.108 5.884 7.36 6.112C7.612 6.336 7.738 6.652 7.738 7.06C7.738 7.468 7.612 7.786 7.36 8.014C7.108 8.242 6.756 8.356 6.304 8.356H5.23V10H4.456V5.77ZM6.208 7.762C6.74 7.762 7.006 7.53 7.006 7.066C7.006 6.83 6.94 6.656 6.808 6.544C6.676 6.428 6.476 6.37 6.208 6.37H5.23V7.762H6.208ZM11.9869 5.77V10H11.4049L9.13694 7.048V10H8.41694V5.77H8.99294L11.2609 8.716V5.77H11.9869Z" fill="white"/>
</svg>
