<svg width="11" height="12" viewBox="0 0 11 12" fill="none" xmlns="http://www.w3.org/2000/svg">
<path d="M3.95626 0.777344C6.08309 0.777344 7.80717 2.50146 7.80717 4.62826C7.80717 5.585 7.45822 6.46028 6.8807 7.13378L7.04119 7.29427H7.51095L10.4732 10.2565L9.58451 11.1452L6.62227 8.18294V7.71319L6.46178 7.5527C5.78829 8.13022 4.913 8.47917 3.95626 8.47917C1.82946 8.47917 0.105347 6.75508 0.105347 4.62826C0.105347 2.50146 1.82946 0.777344 3.95626 0.777344ZM3.95626 1.96225C2.48386 1.96225 1.29024 3.15586 1.29024 4.62826C1.29024 6.10067 2.48386 7.29427 3.95626 7.29427C5.42867 7.29427 6.62227 6.10067 6.62227 4.62826C6.62227 3.15586 5.42867 1.96225 3.95626 1.96225Z" fill="#A9A5AF"/>
</svg>
