<svg width="38" height="38" viewBox="0 0 38 38" fill="none" xmlns="http://www.w3.org/2000/svg">
<path d="M22.0964 24.9111V23.5037C22.0964 22.7572 21.7999 22.0412 21.272 21.5133C20.7441 20.9855 20.0281 20.6889 19.2816 20.6889H13.652C12.9054 20.6889 12.1895 20.9855 11.6616 21.5133C11.1337 22.0412 10.8372 22.7572 10.8372 23.5037V24.9111M26.3186 24.9111V23.5037C26.3182 22.88 26.1106 22.2742 25.7285 21.7813C25.3464 21.2883 24.8114 20.9363 24.2075 20.7804M21.3927 12.3359C21.9982 12.491 22.5349 12.8431 22.9181 13.3368C23.3013 13.8305 23.5093 14.4378 23.5093 15.0628C23.5093 15.6878 23.3013 16.295 22.9181 16.7887C22.5349 17.2825 21.9982 17.6346 21.3927 17.7896M19.2816 15.0593C19.2816 16.6138 18.0214 17.8741 16.4668 17.8741C14.9122 17.8741 13.652 16.6138 13.652 15.0593C13.652 13.5047 14.9122 12.2444 16.4668 12.2444C18.0214 12.2444 19.2816 13.5047 19.2816 15.0593Z" stroke="#FCFCFC" stroke-width="2" stroke-linecap="round" stroke-linejoin="round"/>
</svg>
